<svg width="466" height="300" viewBox="0 0 466 300" fill="none" xmlns="http://www.w3.org/2000/svg">
<g clip-path="url(#clip0_517_29)">
<path d="M408.091 6H57.9091C38.4545 6 19 21.9444 19 37.8889V261.111C19 278.65 36.5091 293 57.9091 293H408.091C427.545 293 447 277.056 447 261.111V37.8889C447 21.9444 427.545 6 408.091 6ZM408.091 259.836C407.702 260.314 406.924 260.792 406.535 261.111H57.9091V39.1644L59.4655 37.8889H406.34C406.924 38.2078 407.507 38.8456 407.896 39.1644V259.836H408.091ZM213.545 205.465L164.909 157.472L96.8182 229.222H369.182L281.636 133.556L213.545 205.465Z" fill="black"/>
</g>
<defs>
<clipPath id="clip0_517_29">
<rect width="466" height="300" fill="white"/>
</clipPath>
</defs>
</svg>
