<svg width="24" height="22" viewBox="0 0 24 22" fill="none" xmlns="http://www.w3.org/2000/svg">
<g id="Vector">
<path fill-rule="evenodd" clip-rule="evenodd" d="M0 4.79438C0 2.63475 1.75073 0.884014 3.91037 0.884014H10.5841V3.49093H3.91037C3.19049 3.49093 2.60691 4.0745 2.60691 4.79438V18.0896C2.60691 18.8095 3.19049 19.3931 3.91037 19.3931H18.9522C19.6721 19.3931 20.2557 18.8095 20.2557 18.0896V12.6785H22.8626V18.0896C22.8626 20.2493 21.1119 22 18.9522 22H3.91037C1.75073 22 0 20.2493 0 18.0896V4.79438Z" fill="#949494"/>
<path fill-rule="evenodd" clip-rule="evenodd" d="M23.7355 1.4552L14.0938 15.7863C12.6904 17.8723 9.71136 18.111 7.99376 16.2749L3.42774 11.394L5.33149 9.61305L9.89751 14.494C10.47 15.106 11.463 15.0265 11.9309 14.3311L21.5726 0L23.7355 1.4552Z" fill="#949494"/>
</g>
</svg>
